<svg width="572" height="997.0000000000001" xmlns="http://www.w3.org/2000/svg">
 <defs>
  <linearGradient y2="1" id="imagebot_68">
   <stop stop-color="#ff7f00" offset="0"/>
   <stop stop-color="#ff0000" offset="1"/>
  </linearGradient>
  <linearGradient y2="1" id="imagebot_57">
   <stop stop-color="#d4cda5" offset="0"/>
   <stop stop-color="#b6ac70" offset="1"/>
  </linearGradient>
  <linearGradient y2="1" id="imagebot_17">
   <stop stop-color="#ff7f00" offset="0"/>
   <stop stop-color="#ff0000" offset="1"/>
  </linearGradient>
  <linearGradient y2="1" id="imagebot_15">
   <stop stop-color="#f6e6b3" offset="0"/>
   <stop stop-color="#ed9016" offset="1"/>
  </linearGradient>
  <linearGradient y2="1" id="imagebot_51">
   <stop stop-color="#ff7f00" offset="0"/>
   <stop stop-color="#ff0000" offset="1"/>
  </linearGradient>
  <linearGradient y2="1" id="imagebot_49">
   <stop stop-color="#ff7f00" offset="0"/>
   <stop stop-color="#ff0000" offset="1"/>
  </linearGradient>
 </defs>
 <metadata id="imagebot_75">image/svg+xml</metadata>
 <g label="Layer 1" id="imagebot_1">
  <path label="Layer 1" id="imagebot_74" d="M 97.06391907348633 338.0992113897705 C 97.06391907348633 338.0992113897705 117.50294907348633 323.80602138977054 116.91425907348633 310.2663713897705 C 116.32558907348633 296.7267013897705 103.24729907348633 278.7928913897705 105.60201907348633 278.7928913897705 C 107.95675907348632 278.7928913897705 163.58491907348633 263.3367113897705 165.35094907348633 267.4574613897705 C 167.11699907348634 271.5782313897705 187.72084907348633 294.5368013897705 203.02654907348634 288.0613113897705 C 218.33225907348634 281.5858013897705 207.14730907348633 340.4539513897705 207.14730907348633 340.4539513897705 C 207.14730907348633 340.4539513897705 189.48687907348634 406.38624138977053 142.39237907348632 375.1861213897705 C 95.29788907348633 343.9860113897705 97.06391907348633 338.0992113897705 97.06391907348633 338.0992113897705 z" stroke-width="1.27155px" stroke="#000000" fill-rule="evenodd" fill="#7f3f00"/>
  <path label="Layer 1" id="imagebot_73" d="M113.35686,387.11358C113.35686,387.11358 146.81872,457.38352 146.81872,467.42209C146.81872,477.46066 244.93784,562.38581 257.24293,576.1732C284.20957,606.38832 429.10455,514.38498 424.55231,485.82614C422.44542,472.60824 371.30028,357.32762 336.80655,343.85759C336.80655,343.85759 308.54606,289.93345 285.68551,286.72797C269.03405,284.3931 251.73791,297.79197 251.73791,297.79197C242.56987,341.52518 255.56983,417.22929 255.56983,417.22929C238.10892,383.93967 210.56154,360.73654 175.26133,345.28625C172.22395,340.22395 113.79934,361.08159 113.35686,387.11358z" stroke-width="1.27155px" stroke="#000000" fill-rule="evenodd" fill="#d1c0af" transform="translate(1.90735e-05, -2.86102e-05) matrix(1, 0, 0, 1, -59.6075, -23.5771)"/>
  <path label="Layer 1" id="imagebot_72" d="M287.35862,135.03409C287.35862,135.03409 264.22753,115.44932 261.87281,107.2078C259.51809,98.96625 257.04775,101.89544 257.04775,101.89544C251.62089,97.37307 237.66513,86.45271 233.78862,90.88302C225.5471,100.30192 228.70754,129.5852 232.02259,130.32465C251.29689,134.6239 277.7124,155.0376 277.7124,155.0376C281.7734,143.88938 283.04162,143.27562 287.35862,135.03409z" stroke-width="1.27155px" stroke="#000000" fill-rule="evenodd" fill="#7f3f00" transform="translate(1.90735e-05, -2.86102e-05) matrix(1, 0, 0, 1, -59.6075, -23.5771)"/>
  <path label="Layer 1" id="imagebot_71" d="M277.01294,288.09395C277.01294,288.09395 305.76265,234.86204 302.41647,219.8042C299.07028,204.74635 248.20001,158.23843 248.20001,158.23843C260.03287,138.69471 260.95698,121.76804 285.68551,119.41854C285.68551,119.41854 349.26308,171.28445 359.30165,193.03468C369.34022,214.7849 339.76005,352.20981 339.76005,352.20981C317.37511,307.25029 294.90451,289.82834 277.01294,288.09395z" stroke-width="1.27155px" stroke="#000000" fill-rule="evenodd" fill="#d1c0af" transform="translate(1.90735e-05, -2.86102e-05) matrix(1, 0, 0, 1, -59.6075, -23.5771)"/>
  <path label="Layer 1" id="imagebot_70" d="M282.07565,284.53904L305.60796,298.749L319.1474,209.76562L255.56983,157.89971L249.77046,160.25028C267.87683,177.61417 287.80078,193.23019 304.86965,221.70309C299.37642,245.49413 291.89108,261.3763 282.07565,284.53904z" stroke-width="1px" fill-rule="evenodd" fill="#b99e85" transform="translate(1.90735e-05, -2.86102e-05) matrix(1, 0, 0, 1, -59.6075, -23.5771)"/>
  <path label="Layer 1" id="imagebot_69" d="M158.84931,426.96797C160.97695,456.53994 160.56906,468.05624 154.88433,484.6076L267.58137,580.42852C285.22461,573.42534 302.86785,568.87692 320.51109,559.28755L257.24293,510.92254L158.84931,426.96797z" stroke-width="1px" fill-rule="evenodd" fill="#c2ab94" transform="translate(1.90735e-05, -2.86102e-05) matrix(1, 0, 0, 1, -59.6075, -23.5771)"/>
  <path label="Layer 1" id="imagebot_67" d="M296.44786,929.14153C329.414,841.23176 268.33209,769.61619 230.51557,720.35589C178.85302,653.05962 348.98997,399.96848 346.68198,356.15848C339.97982,228.93771 262.9854,204.18542 235.22501,141.09357C200.68904,62.60278 213.24759,31.20643 213.24759,31.20643L233.5924,23.57713C233.5924,23.57713 221.03388,54.97346 255.56983,133.46427C283.33023,196.55608 360.32463,221.30841 367.0268,348.52916C369.33478,392.33918 199.19783,645.43031 250.86039,712.72659C288.67693,761.98688 349.75881,833.60246 316.79268,921.51217L296.44786,929.14153z" stroke-width="1.27155px" stroke="#000000" fill-rule="evenodd" fill="url(#imagebot_68)" transform="translate(1.90735e-05, -2.86102e-05) matrix(1, 0, 0, 1, -59.6075, -23.5771)"/>
  <path label="Layer 1" id="imagebot_66" d="M232.05549,130.81383L234.7429,142.45544L225.98408,138.90657C225.29588,138.97497 218.70794,131.26596 223.47093,117.4144C227.18448,106.61493 228.82803,116.59188 228.82803,116.59188C228.53717,120.7559 227.38711,124.26197 232.05549,130.81383z" stroke-width="1.05511px" stroke="#000000" fill-rule="evenodd" fill="#7f3f00" transform="translate(1.90735e-05, -2.86102e-05) matrix(1, 0, 0, 1, -59.6075, -23.5771)"/>
  <path label="Layer 1" id="imagebot_65" d="M119.86037,250.42584C119.86037,250.42584 103.4491,211.45885 111.43266,204.75052C119.41625,198.04221 127.22575,183.12126 136.66895,176.14569C146.11214,169.17013 147.39774,160.69025 161.82362,162.54581C176.24949,164.40139 218.93775,211.29849 218.93775,211.29849L119.86037,250.42584z" stroke-width="1.20283px" stroke="#000000" fill-rule="evenodd" fill="#ff7f00" transform="translate(1.90735e-05, -2.86102e-05) matrix(1, 0, 0, 1, -59.6075, -23.5771)"/>
  <path label="Layer 1" id="imagebot_64" d="M481.19849,673.92969C495.82943,688.8359 558.66259,592.09431 548.12226,580.23643L463.98953,596.48934L481.19849,673.92969z" stroke-width="1.27155px" stroke="#000000" fill-rule="evenodd" fill="#916f6f" transform="translate(1.90735e-05, -2.86102e-05) matrix(1, 0, 0, 1, -59.6075, -23.5771)"/>
  <path label="Layer 1" id="imagebot_63" d="M285.0039,882.07053C277.7689,880.00339 327.27886,786.75683 342.69465,775.51924C355.09951,766.47651 274.40762,665.43585 286.18124,659.54905C297.95488,653.66223 386.25706,625.9942 386.25706,625.9942C386.25706,625.9942 425.69871,769.63242 417.45717,794.35703C409.21563,819.08163 344.4607,876.7724 331.5097,893.25548C323.77733,903.09667 285.0039,882.07053 285.0039,882.07053z" stroke-width="1.27155px" stroke="#000000" fill-rule="evenodd" fill="#7f3f00" transform="translate(1.90735e-05, -2.86102e-05) matrix(1, 0, 0, 1, -59.6075, -23.5771)"/>
  <path label="Layer 1" id="imagebot_62" d="M228.33874,293.29158C221.55372,298.38035 231.44539,301.60141 233.02153,311.67821C235.82543,329.60445 220.67471,348.2156 205.35527,346.93897C190.03583,345.66236 178.27247,351.18823 178.27247,335.86879C178.27247,320.54935 167.98997,308.54152 166.71334,302.15842C165.43673,295.77532 228.33874,293.29158 228.33874,293.29158z" stroke-width="1px" fill-rule="evenodd" fill="#7f3f00" transform="translate(1.90735e-05, -2.86102e-05) matrix(1, 0, 0, 1, -59.6075, -23.5771)"/>
  <path label="Layer 1" id="imagebot_61" d="M165.54659,332.54915L205.37702,353.65172C222.68144,362.81978 245.53126,400.49834 245.53126,400.49834C242.56974,399.51117 239.23444,350.43738 243.85817,331.90149C249.26073,310.2433 234.24521,298.81741 234.24521,298.81741L255.24602,294.28387C252.87057,322.72647 269.96227,341.94006 294.05099,370.38266L263.93531,365.36337L255.56983,413.88309C286.84776,443.20687 322.10812,452.6185 349.26308,502.55708L365.99404,547.7306L350.93619,559.44226C332.61018,495.65277 266.55729,447.77229 223.78105,392.13288C223.78105,392.13288 195.33845,392.13288 195.33845,407.19072C195.33845,422.24857 191.93829,392.56464 186.91901,375.83368C181.89974,359.10276 162.20039,349.54993 162.20039,349.54993L165.54659,332.54915z" stroke-width="1.27155px" stroke="#000000" fill-rule="evenodd" fill="#bda9a9" transform="translate(1.90735e-05, -2.86102e-05) matrix(1, 0, 0, 1, -59.6075, -23.5771)"/>
  <path label="Layer 1" id="imagebot_60" d="M429.81946,605.97906L476.91395,537.69205C476.22766,536.31947 562.79188,588.17958 587.58602,634.23576C599.83868,656.99562 575.8124,780.22868 575.8124,780.22868L532.24998,769.63242C530.00613,769.36898 517.69676,707.29965 521.06505,686.62838C522.7812,676.0963 426.38308,606.3227 429.81946,605.97906z" stroke-width="1.27155px" stroke="#000000" fill-rule="evenodd" fill="#7f3f00" transform="translate(1.90735e-05, -2.86102e-05) matrix(1, 0, 0, 1, -59.6075, -23.5771)"/>
  <path label="Layer 1" id="imagebot_59" d="M327.5033,737.87056C327.5033,737.87056 349.91355,768.9019 344.94173,774.20061C330.69994,789.37872 302.29065,839.55409 303.52549,838.86805C303.52549,838.86805 353.66092,795.9986 357.29394,783.64639C360.92694,771.29418 344.21514,729.87794 344.21514,729.87794L327.5033,737.87056z" stroke-width="1px" fill-rule="evenodd" fill="#7f3f00" transform="translate(1.90735e-05, -2.86102e-05) matrix(1, 0, 0, 1, -59.6075, -23.5771)"/>
  <path label="Layer 1" id="imagebot_58" d="M472.27084,638.87887L472.79277,609.44643C472.79277,609.44643 524.20745,647.83347 533.16204,671.11539C542.11661,694.3973 526.96034,753.05754 526.96034,753.05754C525.88091,733.91102 523.43685,706.39955 520.54886,680.0188L472.27084,638.87887z" stroke-width="1px" fill-rule="evenodd" fill="#7f3f00" transform="translate(1.90735e-05, -2.86102e-05) matrix(1, 0, 0, 1, -59.6075, -23.5771)"/>
  <path label="Layer 1" id="imagebot_56" d="M265.40387,583.07133C265.40387,583.07133 337.39141,562.57021 361.71672,541.56198C386.04207,520.55374 428.05854,481.85435 428.05854,481.85435C409.92993,481.85435 534.32127,543.62207 548.5795,578.04998C551.25525,584.51086 488.87186,593.52972 481.13198,620.06647C473.39211,646.60318 480.0263,674.24561 480.0263,674.24561C480.0263,674.24561 433.57355,637.31264 416.98809,637.31264C400.40264,637.31264 423.8488,701.87455 421.6374,708.50873C419.42602,715.14289 332.5176,747.789 323.67204,741.15482C314.82646,734.52062 274.82143,679.84559 274.82143,661.04872C274.82143,642.25188 265.40387,583.07133 265.40387,583.07133z" stroke-width="1.27155px" stroke="#000000" fill-rule="evenodd" fill="url(#imagebot_57)" transform="translate(1.90735e-05, -2.86102e-05) matrix(1, 0, 0, 1, -59.6075, -23.5771)"/>
  <path label="Layer 1" id="imagebot_55" d="M226.07334,488.43197L244.04493,519.33073C244.04493,519.33073 271.09175,488.80268 279.42653,496.40586C283.49785,500.11983 316.1768,489.13108 322.67068,484.44505C332.42654,477.40515 310.3407,479.94843 309.19196,480.4581C317.33894,478.40357 326.86188,478.15321 329.97163,469.49405C327.69583,463.32961 319.88517,469.44389 314.8081,469.49405C323.56343,467.74758 336.17838,466.55956 332.32537,456.11095L317.61617,459.02834C330.02594,458.91034 336.49165,455.03531 332.62194,440.47118C333.95584,442.24671 317.61617,459.02834 278.30329,454.04468C274.06917,453.50791 280.69888,431.71103 274.95885,432.32933C259.99179,433.94154 251.75946,469.08223 250.22266,472.98264C247.80591,479.11642 226.07334,488.43197 226.07334,488.43197z" stroke-width="1.15671px" stroke="#000000" fill-rule="evenodd" fill="#7f3f00" transform="translate(1.90735e-05, -2.86102e-05) matrix(1, 0, 0, 1, -59.6075, -23.5771)"/>
  <path label="Layer 1" id="imagebot_54" d="M113.35686,378.74812C125.76524,404.03149 145.50035,409.7769 150.16491,455.71045L160.20348,522.63418L213.74248,480.80684C227.78604,489.68104 242.46413,494.74817 252.22365,529.32656C252.22365,529.32656 143.47254,616.32744 128.41471,604.61578C113.35686,592.90414 39.74072,432.28712 113.35686,378.74812z" stroke-width="1.27155px" stroke="#000000" fill-rule="evenodd" fill="#d1c0af" transform="translate(1.90735e-05, -2.86102e-05) matrix(1, 0, 0, 1, -59.6075, -23.5771)"/>
  <path label="Layer 1" id="imagebot_50" d="M522.28549,725.3234C560.13645,746.91195 570.2254,736.11148 584.31239,729.97541L575.00835,810.61038L531.58953,799.75567L522.28549,725.3234z" stroke-width="1.27155px" stroke="#000000" fill-rule="evenodd" fill="url(#imagebot_51)" transform="translate(1.90735e-05, -2.86102e-05) matrix(1, 0, 0, 1, -59.6075, -23.5771)"/>
  <path label="Layer 1" id="imagebot_48" d="M308.29269,824.56644C310.13924,853.21644 326.62362,867.22862 353.2622,871.0866L306.74202,920.7082L277.27925,889.69468L308.29269,824.56644z" stroke-width="1.27155px" stroke="#000000" fill-rule="evenodd" fill="url(#imagebot_49)" transform="translate(1.90735e-05, -2.86102e-05) matrix(1, 0, 0, 1, -59.6075, -23.5771)"/>
  <path label="Layer 1" id="imagebot_47" d="M578.10969,782.69829C578.10969,782.69829 576.55902,788.90097 554.8496,792.00231C533.14018,795.10365 526.9375,768.74222 526.9375,768.74222C526.9375,768.74222 510.38031,798.30504 511.93098,807.60907C513.48165,816.9131 527.46274,832.44484 527.46274,832.44484L539.34288,835.42114C539.34288,835.42114 573.35763,893.8965 602.8204,896.99784C632.28319,900.09918 635.67731,880.23971 628.83169,865.9844C615.47589,838.17233 591.56553,828.11798 588.46417,820.36461C585.36283,812.61125 578.10969,782.69829 578.10969,782.69829z" stroke-width="1.27155px" stroke="#000000" fill-rule="evenodd" fill="#000000" transform="translate(1.90735e-05, -2.86102e-05) matrix(1, 0, 0, 1, -59.6075, -23.5771)"/>
  <path label="Layer 1" id="imagebot_46" d="M327.3502,901.21199C327.3502,901.21199 324.3065,906.83463 302.50751,904.44278C280.70852,902.05094 281.25258,874.97508 281.25258,874.97508C281.25258,874.97508 257.86717,899.49492 257.05667,908.89239C256.24616,918.28992 265.9281,936.80914 265.9281,936.80914L276.69569,942.64491C276.69569,942.64491 295.10904,1007.7395 322.8764,1018.0665C350.64379,1028.3935 358.86747,1010.0008 355.7798,994.49139C349.75579,964.23247 329.09476,948.55083 328.01781,940.26995C326.94088,931.98908 327.3502,901.21199 327.3502,901.21199z" stroke-width="1.27155px" stroke="#000000" fill-rule="evenodd" fill="#000000" transform="translate(1.90735e-05, -2.86102e-05) matrix(1, 0, 0, 1, -59.6075, -23.5771)"/>
  <path label="Layer 1" id="imagebot_27" d="M472.20203,668.19335L410.29755,624.69292C410.29755,624.69292 406.95137,596.25034 395.23971,576.1732C383.52806,556.09606 445.43254,577.84631 445.43254,577.84631L482.2406,607.962L472.20203,668.19335z" stroke-width="1px" fill-rule="evenodd" fill="#daccbe" transform="translate(1.90735e-05, -2.86102e-05) matrix(1, 0, 0, 1, -59.6075, -23.5771)"/>
  <path label="Layer 1" id="imagebot_26" d="M324.16668,741.80951L340.89762,735.11714L309.97885,669.86646L288.53457,576.57476L268.65921,583.43492C270.31947,598.52036 277.06592,652.19562 278.72617,668.61753C288.09369,699.95004 308.74766,717.73881 324.16668,741.80951z" stroke-width="1px" fill-rule="evenodd" fill="#daccbe" transform="translate(1.90735e-05, -2.86102e-05) matrix(1, 0, 0, 1, -59.6075, -23.5771)"/>
  <path label="Layer 1" id="imagebot_16" d="M211.32343,269.59379C235.99919,254.58019 318.56152,202.99277 283.64116,182.30144C241.20876,157.15904 189.27124,167.86946 161.97187,180.11279C121.03456,198.47257 126.71809,244.63693 93.91349,249.67157C43.74009,257.37186 55.26046,257.68968 86.06938,284.78532C110.0463,305.87237 211.32343,269.59379 211.32343,269.59379z" stroke-width="1.29858px" stroke="#000000" fill-rule="evenodd" fill="url(#imagebot_17)" transform="translate(1.90735e-05, -2.86102e-05) matrix(1, 0, 0, 1, -59.6075, -23.5771)"/>
  <path label="Layer 1" id="imagebot_14" d="M257.46879,237.3697C257.46879,217.88624 274.40563,200.21279 255.94761,196.11102C237.48962,192.00925 178.66148,199.45721 160.20348,213.81344C141.74548,228.16968 116.10936,250.56755 104.82948,255.69477C93.54959,260.82199 83.29514,281.33088 96.62592,283.38177C109.9567,285.43267 129.4033,288.02923 147.00563,286.15427C197.99301,280.72321 257.46879,237.3697 257.46879,237.3697z" stroke-width="1px" fill-rule="evenodd" fill="url(#imagebot_15)" transform="translate(1.90735e-05, -2.86102e-05) matrix(1, 0, 0, 1, -59.6075, -23.5771)"/>
  <path label="Layer 1" id="imagebot_13" d="M155.99526,289.30559C165.90871,309.16758 187.28702,321.8197 212.38419,314.16811C227.54591,309.54563 235.62869,296.94834 228.97826,261.87642C223.67187,233.89239 226.62588,222.99018 214.36215,212.15135C206.17667,204.91692 182.50231,212.61824 164.25321,224.98053C146.00408,237.34284 133.87523,242.38723 134.30151,253.35903C135.08157,273.4368 155.99526,289.30559 155.99526,289.30559z" stroke-width="1.27155px" stroke="#7f3f00" fill-rule="evenodd" fill="#7f3f00" transform="translate(1.90735e-05, -2.86102e-05) matrix(1, 0, 0, 1, -59.6075, -23.5771)"/>
  <path label="Layer 1" id="imagebot_12" d="M155.68676,280.70494L144.87242,273.27845C144.87242,273.27845 161.17859,300.15376 165.85915,300.93386C170.53971,301.71396 173.66009,317.31582 201.74342,314.19544C205.62003,313.7647 210.32445,309.51488 210.32445,309.51488C209.32659,312.00953 181.47266,294.52798 179.49519,285.43006C178.3837,280.31645 155.68676,280.70494 155.68676,280.70494z" stroke-width="1px" fill-rule="evenodd" fill="#7f3f00" transform="translate(1.90735e-05, -2.86102e-05) matrix(1, 0, 0, 1, -59.6075, -23.5771)"/>
  <path label="Layer 1" id="imagebot_11" d="M218.14877,282.1127L216.15238,287.66791C212.67862,282.51719 195.8586,297.38075 196.63517,295.63261C198.73078,290.91518 214.78725,281.33924 218.14877,282.1127z" stroke-width="1px" fill-rule="evenodd" fill="#000000" transform="translate(1.90735e-05, -2.86102e-05) matrix(1, 0, 0, 1, -59.6075, -23.5771)"/>
  <path label="Layer 1" id="imagebot_10" d="M188.97871,244.12792L194.36871,246.78697L199.08274,245.30885C197.08242,248.09043 202.77607,253.45159 204.92335,250.72601C206.00925,249.34766 202.1827,242.95087 202.1827,242.95087L208.40206,237.68711C198.71586,238.08326 194.68428,241.56186 188.97871,244.12792z" stroke-width="1px" fill-rule="evenodd" fill="#000000" transform="translate(1.90735e-05, -2.86102e-05) matrix(1, 0, 0, 1, -59.6075, -23.5771)"/>
  <path label="Layer 1" id="imagebot_9" d="M143.26314,264.92378C143.26314,264.92378 178.12824,231.08409 209.91704,225.95687C226.24086,223.32401 208.89159,206.47342 208.89159,206.47342C208.89159,206.47342 149.41581,226.98232 146.33947,236.21132C143.26314,245.44031 143.26314,264.92378 143.26314,264.92378z" stroke-width="1px" fill-rule="evenodd" fill="#7f3f00" transform="translate(1.90735e-05, -2.86102e-05) matrix(1, 0, 0, 1, -59.6075, -23.5771)"/>
  <path label="Layer 1" id="imagebot_8" d="M159.6554,294.06938C159.6554,294.06938 159.03098,286.95036 156.50841,285.1066C133.88864,268.57389 153.72518,279.33821 153.725,274.37422C153.72493,272.16483 142.23139,265.25924 142.23139,265.25924L146.50142,237.34284L137.18402,243.0977L130.33298,256.25168C130.33298,256.25168 122.93389,272.69417 127.59259,277.90095C132.25127,283.10773 142.11676,286.94429 145.13122,290.23278C148.14567,293.5213 159.6554,294.06938 159.6554,294.06938z" stroke-miterlimit="4" stroke-width="0.31789" stroke="#000000" fill-rule="evenodd" fill="#341d0e" transform="translate(1.90735e-05, -2.86102e-05) matrix(1, 0, 0, 1, -59.6075, -23.5771)"/>
  <path label="Layer 1" id="imagebot_7" d="M230.084,249.12661C230.084,249.12661 221.31466,242.82368 220.21852,238.98709L219.12235,235.15051C219.12235,235.15051 213.36747,219.25612 211.99728,218.15996C210.62707,217.06379 210.35303,216.78973 210.35303,216.78973C210.35303,216.78973 202.1318,210.76083 197.74712,212.95316C193.36248,215.1455 181.30465,220.07824 178.56426,220.35227C175.82383,220.62631 167.32855,222.27056 167.32855,222.27056C167.32855,222.27056 192.81438,202.81361 198.29522,202.53957C203.77603,202.26553 212.27132,199.79916 215.83386,204.73192C219.39639,209.66466 219.94447,216.51569 224.05509,218.98208L228.16571,221.44843C228.16571,221.44843 232.55037,228.5735 231.18016,232.68414C229.80996,236.79476 225.97338,249.67469 230.084,249.12661z" stroke-miterlimit="4" stroke-width="0.31789" stroke="#000000" fill-rule="evenodd" fill="#341d0e" transform="translate(1.90735e-05, -2.86102e-05) matrix(1, 0, 0, 1, -59.6075, -23.5771)"/>
  <path label="Layer 1" id="imagebot_6" d="M176.10519,249.8187L173.63219,254.79179L169.05441,256.42783C172.36469,257.27044 171.37277,264.34437 167.98459,263.62559C166.27116,263.26211 165.16416,256.51501 165.16416,256.51501L157.02082,256.30967C164.75028,251.06406 170.07123,251.24454 176.10519,249.8187z" stroke-width="1px" fill-rule="evenodd" fill="#000000" transform="translate(1.90735e-05, -2.86102e-05) matrix(1, 0, 0, 1, -59.6075, -23.5771)"/>
  <path label="Layer 1" id="imagebot_5" d="M189.79993,259.81423L192.2663,268.58355L196.37693,268.85759L189.79993,259.81423z" stroke-width="1px" fill-rule="evenodd" fill="#000000" transform="translate(1.90735e-05, -2.86102e-05) matrix(1, 0, 0, 1, -59.6075, -23.5771)"/>
  <path label="Layer 1" id="imagebot_4" d="M250.19708,531.42384C244.82434,522.46925 241.24248,517.09649 241.24248,517.09649C241.24248,517.09649 157.06937,583.36042 144.53296,583.36042C131.99653,583.36042 85.71583,478.81373 85.71583,478.81373C80.87065,477.19867 112.25004,603.64202 131.99653,604.85143C148.08465,605.83678 250.19708,531.42384 250.19708,531.42384z" stroke-width="1px" fill-rule="evenodd" fill="#b99e85" transform="translate(1.90735e-05, -2.86102e-05) matrix(1, 0, 0, 1, -59.6075, -23.5771)"/>
  <path label="Layer 1" id="imagebot_3" d="M243.20893,87.02445C238.85482,84.46625 225.87016,90.13845 227.21781,97.67386C228.23837,103.38018 232.46315,101.30282 232.46315,101.30282L241.72762,94.83886C241.72762,94.83886 230.03057,102.81404 233.41973,110.3442C234.70496,113.19978 242.28596,103.30923 246.68139,103.91278C242.35739,107.07859 236.78542,110.42103 239.65954,114.98164C241.3689,117.69406 252.68939,110.6981 252.68939,110.6981C251.03485,110.86578 245.01445,117.89882 250.54151,118.96529C253.37195,119.28829 261.27921,111.98247 266.96435,116.17729C266.96435,116.17729 268.08987,112.08192 263.48872,106.69364C256.23445,92.41698 253.17102,92.87757 243.20893,87.02445z" stroke-width="1.34203px" stroke="#000000" fill-rule="evenodd" fill="#7f3f00" transform="translate(1.90735e-05, -2.86102e-05) matrix(1, 0, 0, 1, -59.6075, -23.5771)"/>
  <path label="Layer 1" id="imagebot_2" d="M242.28571,300.3622C242.28571,300.3622 252.57143,318.07649 252,332.93363C251.42857,347.79078 254.28571,410.07649 254.28571,410.07649L245.14286,402.07649C245.14286,402.07649 241.90887,360.03357 243.42857,351.21934C246.28571,334.64792 247.42857,304.93363 242.28571,300.3622z" stroke-width="1px" fill-rule="evenodd" fill="#a58a8a" transform="translate(1.90735e-05, -2.86102e-05) matrix(1, 0, 0, 1, -59.6075, -23.5771)"/>
  <title label="Layer 1"/>
 </g>
</svg>